<svg width="22" height="22" viewBox="0 0 22 22" fill="none" xmlns="http://www.w3.org/2000/svg">
<path d="M10.3125 14.4805V4.125C10.3125 3.73828 10.6133 3.4375 11 3.4375C11.3867 3.4375 11.6875 3.73828 11.6875 4.125V14.4805H10.3125ZM10.3125 15.834H11.6875V17.123H10.3125V15.834ZM0 11C0 4.91992 4.91992 0 11 0C17.0801 0 22 4.91992 22 11C22 17.0801 17.0801 22 11 22C4.91992 22 0 17.0801 0 11ZM20.6465 11C20.6465 5.69336 16.3066 1.375 11 1.375C5.69336 1.375 1.375 5.69336 1.375 11C1.375 16.3066 5.69336 20.625 11 20.625C16.3066 20.625 20.6465 16.3066 20.6465 11Z" fill="#181818"/>
</svg>
