<svg width="30" height="30" viewBox="0 0 30 30" fill="none" xmlns="http://www.w3.org/2000/svg">
<path d="M27.893 0.0454544L15.4993 3.40264C15.1843 3.48702 14.5004 3.48608 14.1863 3.39795L2.1118 0.0520169C1.03411 -0.244702 -0.00976562 0.532486 -0.00976562 1.64202V24.4383C-0.00976562 25.3786 0.703174 26.2777 1.61067 26.5303L13.6857 29.8767C14.0087 29.9662 14.4245 30.0159 14.8557 30.0159C15.1515 30.0159 15.5883 29.993 15.9901 29.8833L28.3833 26.5261C29.2932 26.28 30.0094 25.3828 30.0094 24.4387V1.64202C30.0099 0.533423 28.966 -0.246577 27.893 0.0454544H27.893ZM14.0625 28.0354L2.08224 24.7232C1.99177 24.6984 1.8652 24.5329 1.8652 24.4387V1.93777L13.6857 5.20545C13.8 5.23733 13.9285 5.26217 14.0625 5.28327V28.0355V28.0354ZM28.1349 24.4387C28.1349 24.5311 27.983 24.6923 27.893 24.7171L15.9376 27.9553V5.22324C15.9549 5.21902 15.9727 5.21668 15.9901 5.21199L28.1345 1.92699V24.4387H28.1349L28.1349 24.4387ZM18.8086 10.7315C18.893 10.7315 18.9789 10.7208 19.0632 10.6968L25.6238 8.85043C26.1226 8.70933 26.4132 8.19227 26.273 7.69399C26.1329 7.19571 25.6121 6.90649 25.1166 7.04477L18.556 8.89121C18.0573 9.0323 17.7666 9.54933 17.9068 10.0476C18.023 10.4615 18.3994 10.7315 18.8086 10.7315ZM18.8087 16.3565C18.8931 16.3565 18.9789 16.3458 19.0633 16.3218L25.6239 14.4754C26.1227 14.3343 26.4133 13.8173 26.2731 13.319C26.133 12.8207 25.6122 12.5315 25.1167 12.6698L18.5561 14.5162C18.0573 14.6573 17.7667 15.1743 17.9069 15.6722C18.0231 16.086 18.3995 16.3565 18.8087 16.3565ZM18.8088 21.9815C18.8931 21.9815 18.979 21.9708 19.0633 21.9468L25.6239 20.1004C26.1227 19.9593 26.4134 19.4423 26.2732 18.944C26.133 18.4457 25.6122 18.1565 25.1168 18.2948L18.5561 20.1412C18.0574 20.2823 17.7668 20.7993 17.9069 21.2976C18.0232 21.7111 18.3995 21.9815 18.8088 21.9815ZM11.5615 8.89121L5.00091 7.04477C4.50544 6.90649 3.98466 7.19571 3.84447 7.69399C3.70429 8.19227 3.99447 8.7093 4.49369 8.85043L11.0543 10.6968C11.1372 10.7201 11.2228 10.7318 11.3088 10.7315C11.7181 10.7315 12.0944 10.4615 12.2107 10.0476C12.3508 9.5498 12.0607 9.0323 11.5615 8.89121ZM11.5615 14.5162L5.00097 12.6697C4.5055 12.5315 3.98469 12.8207 3.84453 13.319C3.70438 13.8172 3.99453 14.3343 4.49375 14.4754L11.0544 16.3218C11.1372 16.3451 11.2229 16.3567 11.3089 16.3565C11.7181 16.3565 12.0945 16.0865 12.2108 15.6726C12.3509 15.1748 12.0608 14.6573 11.5615 14.5162ZM11.5616 20.1411L5.00103 18.2947C4.50556 18.1564 3.98475 18.4456 3.84459 18.9439C3.70443 19.4422 3.99459 19.9592 4.49381 20.1004L11.0544 21.9468C11.1373 21.97 11.2229 21.9817 11.309 21.9815C11.7182 21.9815 12.0946 21.7115 12.2108 21.2976C12.351 20.7993 12.0608 20.2822 11.5616 20.1411Z" fill="#9498A0"/>
</svg>
