<svg width="30" height="26" viewBox="0 0 30 26" fill="none" xmlns="http://www.w3.org/2000/svg">
<path d="M29.97 12.941L26.5275 1.01456C26.415 0.608154 26.0452 0.326904 25.6238 0.326904H4.08047C3.65578 0.326904 3.28406 0.612373 3.17391 1.0235L0.0276562 12.3424C-0.0304688 12.5622 -0.00190436 12.7821 0.0862206 12.9733C0.0355956 13.143 -7.24103e-08 13.3197 -7.24103e-08 13.5058V23.7982C-7.24103e-08 24.8336 0.839531 25.6732 1.875 25.6732H28.125C29.1604 25.6732 30 24.8336 30 23.7982V13.5058C30 13.4557 29.9892 13.4083 29.9855 13.3591C30.0098 13.2246 30.0094 13.0826 29.97 12.941ZM4.80173 2.20193L24.9102 2.2019L27.6383 11.6308H18.898C18.8558 13.8813 17.2602 15.4301 14.9999 15.4301C12.7395 15.4301 11.173 13.8808 11.1308 11.6308H2.17251L4.80173 2.20193ZM28.1249 23.7982H1.87494V13.5058H9.58354C10.402 15.8622 12.3894 17.305 14.9999 17.305C17.6104 17.305 19.6269 15.8622 20.4454 13.5058H28.1249V23.7982Z" fill="#9498A0"/>
</svg>
