<svg width="30" height="30" viewBox="0 0 30 30" fill="none" xmlns="http://www.w3.org/2000/svg">
<path d="M29.7861 15.0398L15.7128 0.298536C15.6254 0.207279 15.5204 0.134685 15.4041 0.085137C15.2879 0.0355893 15.1628 0.0101158 15.0364 0.0102545C14.9101 0.010308 14.785 0.0358687 14.6688 0.0854049C14.5526 0.134941 14.4476 0.207433 14.36 0.298536L0.214075 15.0393C-0.144519 15.4129 -0.131862 16.0059 0.241731 16.3649C0.615325 16.7231 1.20829 16.7128 1.56736 16.3373L2.82733 15.0238V29.0521C2.82733 29.5701 3.24733 29.9896 3.76483 29.9896H10.3142C10.8308 29.9896 11.2498 29.572 11.2517 29.0549L11.2812 19.6898H18.7517V29.0521C18.7517 29.5701 19.1712 29.9896 19.6892 29.9896H26.2362C26.7542 29.9896 27.1737 29.5701 27.1737 29.0521V15.0191L28.4333 16.3387C28.5208 16.4298 28.6258 16.5024 28.7421 16.5519C28.8583 16.6014 28.9834 16.627 29.1097 16.6269C29.3431 16.6269 29.5775 16.5407 29.7589 16.3649C30.1321 16.0068 30.1443 15.4133 29.7861 15.0398V15.0398ZM25.2989 13.3246V28.1146H20.6268V18.7527C20.6268 18.2348 20.2073 17.8152 19.6893 17.8152H10.3472C9.8306 17.8152 9.41154 18.2329 9.40966 18.7499L9.38013 28.1151H4.70247V13.3246C4.70247 13.2473 4.69029 13.1732 4.67294 13.101L15.037 2.3015L25.3326 13.0888C25.3125 13.1648 25.2989 13.2431 25.2989 13.3246Z" fill="#9498A0"/>
</svg>
