<svg width="18" height="37" viewBox="0 0 18 37" fill="none" xmlns="http://www.w3.org/2000/svg">
<path d="M15.3799 21.7513C18.479 19.3754 14.3303 11.0087 6.78417 12.8944C3.83428 13.6316 1.76771 15.6563 2.02098 19.2696C2.27425 22.8829 5.33507 23.9082 6.81351 24.4688C9.77034 25.59 15.5885 26.8276 14.0226 31.768C12.77 35.7203 7.86492 35.5207 5.92758 33.9406C5.12204 33.2406 3.9797 31.3593 5.06279 29.338M11.7491 13.0965C8.79224 11.9753 3.19976 10.1694 4.7656 5.22902C6.01827 1.2767 10.9233 1.47634 12.8606 3.05643C13.6662 3.75643 15.5341 5.6673 14.4301 8.20148" stroke="#181818" stroke-width="3" stroke-linecap="round" stroke-linejoin="round"/>
</svg>
