<svg width="26" height="30" viewBox="0 0 26 30" fill="none" xmlns="http://www.w3.org/2000/svg">
<path d="M22.8775 0H4.18615C2.8385 0 2.25162 0.996094 2.25162 1.93359V5.66344H1.22834C0.721182 5.66344 0.310059 6.07453 0.310059 6.58175C0.310059 7.08891 0.721182 7.5 1.22834 7.5H2.25162V11.272H1.316C0.808809 11.272 0.397715 11.6832 0.397715 12.1903C0.397715 12.6975 0.808809 13.1086 1.31597 13.1086H2.25159V16.9008H1.29581C0.788623 16.9008 0.377529 17.3119 0.377529 17.8191C0.377529 18.3263 0.788623 18.7374 1.29581 18.7374H2.25159V22.501H1.29581C0.788623 22.501 0.377529 22.9121 0.377529 23.4192C0.377529 23.9264 0.788623 24.3375 1.29581 24.3375H2.25159V28.125C2.25159 29.6785 3.46847 30 4.14206 30H22.8775C24.431 30 25.69 28.741 25.69 27.1875V2.8125C25.69 1.25906 24.4314 0 22.8775 0ZM4.12662 28.125L4.12659 24.3375H5.10347C5.61062 24.3375 6.02175 23.9264 6.02175 23.4192C6.02175 22.9121 5.61062 22.501 5.10347 22.501H4.12659V18.7374H5.10347C5.61062 18.7374 6.02175 18.3263 6.02175 17.8191C6.02175 17.3119 5.61062 16.9008 5.10347 16.9008H4.12659V13.1086H5.12362C5.63084 13.1086 6.04193 12.6975 6.04193 12.1903C6.04193 11.6831 5.63084 11.272 5.12365 11.272H4.12662V7.5H5.03553C5.54271 7.5 5.95381 7.08891 5.95381 6.58175C5.95381 6.07453 5.54271 5.66344 5.03553 5.66344H4.12662V1.93359C4.12662 1.91156 4.1285 1.89328 4.13131 1.87688C4.14956 1.87564 4.16786 1.87502 4.18615 1.875H19.1276V28.125H4.12662ZM23.815 27.1875C23.815 27.705 23.395 28.125 22.8775 28.125H21.0025V1.87503H22.8775C23.395 1.87503 23.815 2.29503 23.815 2.81253V27.1875Z" fill="#9498A0"/>
</svg>
