<svg width="22" height="22" viewBox="0 0 22 22" fill="none" xmlns="http://www.w3.org/2000/svg">
<path d="M21.7989 20.8192L15.1188 14.0982C16.3639 12.607 17.1143 10.6886 17.1143 8.59375C17.1143 3.84759 13.2667 0 8.52051 0C3.77435 0 -0.0732422 3.84759 -0.0732422 8.59375C-0.0732422 13.3399 3.77435 17.1875 8.52051 17.1875C10.6769 17.1875 12.6465 16.3914 14.1556 15.0789L20.8264 21.7917C21.0949 22.0602 21.5304 22.0602 21.7989 21.7917C22.067 21.5232 22.067 21.088 21.7989 20.8192H21.7989ZM8.52051 15.8238C4.52751 15.8238 1.29041 12.5868 1.29041 8.59375C1.29041 4.60075 4.52751 1.36366 8.52051 1.36366C12.5135 1.36366 15.7506 4.60075 15.7506 8.59375C15.7506 12.5868 12.5135 15.8238 8.52051 15.8238Z" fill="#224973"/>
</svg>
